<mxfile host="app.diagrams.net" modified="2023-11-02T20:54:41.526Z" agent="Mozilla/5.0 (Macintosh; Intel Mac OS X 10_15_7) AppleWebKit/537.36 (KHTML, like Gecko) Chrome/118.0.0.0 Safari/537.36 Edg/118.0.2088.76" etag="qmpULEJ_Se0D3kSiOa8A" version="22.0.8" type="github">
  <diagram id="1b6ddaa2-a5fa-0841-a249-ffc654eaa1b7" name="Page-1">
    <mxGraphModel dx="899" dy="536" grid="1" gridSize="10" guides="1" tooltips="1" connect="1" arrows="1" fold="1" page="1" pageScale="1.5" pageWidth="826" pageHeight="1169" background="#ffffff" math="0" shadow="0">
      <root>
        <mxCell id="0" style=";html=1;" />
        <mxCell id="1" style=";html=1;" parent="0" />
        <mxCell id="5d17adbdfd248a57-147" value="" style="line;strokeWidth=2;direction=south;html=1;rounded=0;shadow=0;dashed=0;fillColor=none;fontFamily=Lucida Console;fontSize=14;align=left;strokeColor=#CCCCCC;" parent="1" vertex="1">
          <mxGeometry x="1579" y="470" width="10" height="250" as="geometry" />
        </mxCell>
        <mxCell id="5d17adbdfd248a57-146" value="" style="line;strokeWidth=2;direction=south;html=1;rounded=0;shadow=0;dashed=0;fillColor=none;fontFamily=Lucida Console;fontSize=14;align=left;strokeColor=#CCCCCC;" parent="1" vertex="1">
          <mxGeometry x="1300" y="470" width="10" height="250" as="geometry" />
        </mxCell>
        <mxCell id="5d17adbdfd248a57-145" value="" style="line;strokeWidth=2;direction=south;html=1;rounded=0;shadow=0;dashed=0;fillColor=none;fontFamily=Lucida Console;fontSize=14;align=left;strokeColor=#CCCCCC;" parent="1" vertex="1">
          <mxGeometry x="1020" y="470" width="10" height="250" as="geometry" />
        </mxCell>
        <mxCell id="5d17adbdfd248a57-144" value="" style="line;strokeWidth=2;direction=south;html=1;rounded=0;shadow=0;dashed=0;fillColor=none;fontFamily=Lucida Console;fontSize=14;align=left;strokeColor=#CCCCCC;" parent="1" vertex="1">
          <mxGeometry x="740" y="469" width="10" height="250" as="geometry" />
        </mxCell>
        <mxCell id="5d17adbdfd248a57-143" value="" style="line;strokeWidth=2;direction=south;html=1;rounded=0;shadow=0;dashed=0;fillColor=none;fontFamily=Lucida Console;fontSize=14;align=left;strokeColor=#CCCCCC;" parent="1" vertex="1">
          <mxGeometry x="460" y="470" width="10" height="250" as="geometry" />
        </mxCell>
        <mxCell id="5d17adbdfd248a57-142" value="" style="line;strokeWidth=2;direction=south;html=1;rounded=0;shadow=0;dashed=0;fillColor=none;fontFamily=Lucida Console;fontSize=14;align=left;strokeColor=#CCCCCC;" parent="1" vertex="1">
          <mxGeometry x="181" y="470" width="10" height="250" as="geometry" />
        </mxCell>
        <mxCell id="5d17adbdfd248a57-5" value="" style="html=1;shadow=0;dashed=0;align=center;verticalAlign=middle;shape=mxgraph.arrows2.arrow;dy=0;dx=60;notch=0;rounded=1;strokeWidth=1;fillColor=#EFAC43;fontSize=30;rotation=90;strokeColor=none;" parent="1" vertex="1">
          <mxGeometry x="430" y="220" width="350" height="280" as="geometry" />
        </mxCell>
        <mxCell id="5d17adbdfd248a57-6" value="" style="html=1;shadow=0;dashed=0;align=center;verticalAlign=middle;shape=mxgraph.arrows2.arrow;dy=0;dx=60;notch=0;rounded=1;strokeWidth=1;fillColor=#0D5B9D;fontSize=30;rotation=90;strokeColor=none;" parent="1" vertex="1">
          <mxGeometry x="150" y="220" width="350" height="280" as="geometry" />
        </mxCell>
        <mxCell id="5d17adbdfd248a57-7" value="" style="html=1;shadow=0;dashed=0;align=center;verticalAlign=middle;shape=mxgraph.arrows2.arrow;dy=0;dx=60;notch=0;rounded=1;strokeWidth=1;fillColor=#AB221C;fontSize=30;rotation=90;strokeColor=none;" parent="1" vertex="1">
          <mxGeometry x="710" y="220" width="350" height="280" as="geometry" />
        </mxCell>
        <mxCell id="5d17adbdfd248a57-8" value="" style="html=1;shadow=0;dashed=0;align=center;verticalAlign=middle;shape=mxgraph.arrows2.arrow;dy=0;dx=60;notch=0;rounded=1;strokeWidth=1;fillColor=#55BFE0;fontSize=30;rotation=90;strokeColor=none;" parent="1" vertex="1">
          <mxGeometry x="990" y="220" width="350" height="280" as="geometry" />
        </mxCell>
        <mxCell id="5d17adbdfd248a57-9" value="" style="html=1;shadow=0;dashed=0;align=center;verticalAlign=middle;shape=mxgraph.arrows2.arrow;dy=0;dx=60;notch=0;rounded=1;strokeWidth=1;fillColor=#58B957;fontSize=30;rotation=90;strokeColor=none;" parent="1" vertex="1">
          <mxGeometry x="1270" y="220" width="350" height="280" as="geometry" />
        </mxCell>
        <mxCell id="5d17adbdfd248a57-15" value="" style="html=1;shadow=0;dashed=0;align=center;verticalAlign=middle;shape=mxgraph.arrows2.arrow;dy=0;dx=60;notch=60;rounded=1;strokeWidth=1;fillColor=#0D5B9D;fontSize=30;rotation=90;strokeColor=none;" parent="1" vertex="1">
          <mxGeometry x="150" y="750" width="350" height="280" as="geometry" />
        </mxCell>
        <mxCell id="5d17adbdfd248a57-16" value="" style="html=1;shadow=0;dashed=0;align=center;verticalAlign=middle;shape=mxgraph.arrows2.arrow;dy=0;dx=60;notch=60;rounded=1;strokeWidth=1;fillColor=#EFAC43;fontSize=30;rotation=90;strokeColor=none;" parent="1" vertex="1">
          <mxGeometry x="430" y="750" width="350" height="280" as="geometry" />
        </mxCell>
        <mxCell id="5d17adbdfd248a57-17" value="" style="html=1;shadow=0;dashed=0;align=center;verticalAlign=middle;shape=mxgraph.arrows2.arrow;dy=0;dx=60;notch=60;rounded=1;strokeWidth=1;fillColor=#AB221C;fontSize=30;rotation=90;strokeColor=none;" parent="1" vertex="1">
          <mxGeometry x="710" y="750" width="350" height="280" as="geometry" />
        </mxCell>
        <mxCell id="5d17adbdfd248a57-18" value="" style="html=1;shadow=0;dashed=0;align=center;verticalAlign=middle;shape=mxgraph.arrows2.arrow;dy=0;dx=60;notch=60;rounded=1;strokeWidth=1;fillColor=#55BFE0;fontSize=30;rotation=90;strokeColor=none;" parent="1" vertex="1">
          <mxGeometry x="990" y="750" width="350" height="280" as="geometry" />
        </mxCell>
        <mxCell id="5d17adbdfd248a57-19" value="" style="html=1;shadow=0;dashed=0;align=center;verticalAlign=middle;shape=mxgraph.arrows2.arrow;dy=0;dx=60;notch=60;rounded=1;strokeWidth=1;fillColor=#58B957;fontSize=30;rotation=90;strokeColor=none;" parent="1" vertex="1">
          <mxGeometry x="1270" y="750" width="350" height="280" as="geometry" />
        </mxCell>
        <mxCell id="5d17adbdfd248a57-20" value="TITLE GOES HERE" style="text;html=1;strokeColor=none;fillColor=none;align=center;verticalAlign=middle;whiteSpace=wrap;rounded=0;shadow=0;dashed=0;fontSize=45;fontFamily=Tahoma;fontColor=#0D5B9D;fontStyle=1;strokeWidth=9;" parent="1" vertex="1">
          <mxGeometry x="186" y="70" width="1400" height="60" as="geometry" />
        </mxCell>
        <mxCell id="5d17adbdfd248a57-21" value="" style="verticalLabelPosition=bottom;shadow=0;dashed=0;align=center;html=1;verticalAlign=top;strokeWidth=1;shape=mxgraph.mockup.graphics.columnChart;fillColor=none;strokeColor=none;strokeColor2=none;strokeColor3=#666666;fillColor2=#0D5B9D;fillColor3=#EFAC43;rounded=0;fontFamily=Lucida Console;fontSize=30;" parent="1" vertex="1">
          <mxGeometry x="225" y="592" width="200" height="75" as="geometry" />
        </mxCell>
        <mxCell id="5d17adbdfd248a57-22" value="" style="verticalLabelPosition=bottom;shadow=0;dashed=0;align=center;html=1;verticalAlign=top;strokeWidth=1;shape=mxgraph.mockup.graphics.pieChart;strokeColor=none;parts=30,20,10,5;partColors=#0D5B9D,#EFAC43,#AB221C,#58B957,#AB221C;strokeWidth=2;rounded=0;fontFamily=Lucida Console;fontSize=30;" parent="1" vertex="1">
          <mxGeometry x="1110" y="580" width="110" height="110" as="geometry" />
        </mxCell>
        <mxCell id="5d17adbdfd248a57-23" value="" style="shape=mxgraph.signs.people.woman_1;html=1;fillColor=#EFAC43;strokeColor=none;verticalLabelPosition=bottom;verticalAlign=top;align=center;rounded=0;shadow=0;dashed=0;fontFamily=Lucida Console;fontSize=30;" parent="1" vertex="1">
          <mxGeometry x="479" y="560" width="19" height="40" as="geometry" />
        </mxCell>
        <mxCell id="5d17adbdfd248a57-25" value="" style="shape=mxgraph.signs.people.woman_1;html=1;fillColor=#EFAC43;strokeColor=none;verticalLabelPosition=bottom;verticalAlign=top;align=center;rounded=0;shadow=0;dashed=0;fontFamily=Lucida Console;fontSize=30;" parent="1" vertex="1">
          <mxGeometry x="500" y="560" width="19" height="40" as="geometry" />
        </mxCell>
        <mxCell id="5d17adbdfd248a57-26" value="" style="shape=mxgraph.signs.people.woman_1;html=1;fillColor=#EFAC43;strokeColor=none;verticalLabelPosition=bottom;verticalAlign=top;align=center;rounded=0;shadow=0;dashed=0;fontFamily=Lucida Console;fontSize=30;" parent="1" vertex="1">
          <mxGeometry x="521" y="560" width="19" height="40" as="geometry" />
        </mxCell>
        <mxCell id="5d17adbdfd248a57-27" value="" style="shape=mxgraph.signs.people.woman_1;html=1;fillColor=#CCCCCC;strokeColor=none;verticalLabelPosition=bottom;verticalAlign=top;align=center;rounded=0;shadow=0;dashed=0;fontFamily=Lucida Console;fontSize=30;" parent="1" vertex="1">
          <mxGeometry x="543" y="560" width="19" height="40" as="geometry" />
        </mxCell>
        <mxCell id="5d17adbdfd248a57-28" value="" style="shape=mxgraph.signs.people.woman_1;html=1;fillColor=#CCCCCC;strokeColor=none;verticalLabelPosition=bottom;verticalAlign=top;align=center;rounded=0;shadow=0;dashed=0;fontFamily=Lucida Console;fontSize=30;" parent="1" vertex="1">
          <mxGeometry x="564" y="560" width="19" height="40" as="geometry" />
        </mxCell>
        <mxCell id="5d17adbdfd248a57-29" value="" style="shape=mxgraph.signs.people.woman_1;html=1;fillColor=#CCCCCC;strokeColor=none;verticalLabelPosition=bottom;verticalAlign=top;align=center;rounded=0;shadow=0;dashed=0;fontFamily=Lucida Console;fontSize=30;" parent="1" vertex="1">
          <mxGeometry x="585" y="560" width="19" height="40" as="geometry" />
        </mxCell>
        <mxCell id="5d17adbdfd248a57-30" value="" style="shape=mxgraph.signs.people.woman_1;html=1;fillColor=#CCCCCC;strokeColor=none;verticalLabelPosition=bottom;verticalAlign=top;align=center;rounded=0;shadow=0;dashed=0;fontFamily=Lucida Console;fontSize=30;" parent="1" vertex="1">
          <mxGeometry x="606" y="560" width="19" height="40" as="geometry" />
        </mxCell>
        <mxCell id="5d17adbdfd248a57-31" value="" style="shape=mxgraph.signs.people.woman_1;html=1;fillColor=#CCCCCC;strokeColor=none;verticalLabelPosition=bottom;verticalAlign=top;align=center;rounded=0;shadow=0;dashed=0;fontFamily=Lucida Console;fontSize=30;" parent="1" vertex="1">
          <mxGeometry x="627" y="560" width="19" height="40" as="geometry" />
        </mxCell>
        <mxCell id="5d17adbdfd248a57-32" value="" style="shape=mxgraph.signs.people.woman_1;html=1;fillColor=#CCCCCC;strokeColor=none;verticalLabelPosition=bottom;verticalAlign=top;align=center;rounded=0;shadow=0;dashed=0;fontFamily=Lucida Console;fontSize=30;" parent="1" vertex="1">
          <mxGeometry x="648" y="560" width="19" height="40" as="geometry" />
        </mxCell>
        <mxCell id="5d17adbdfd248a57-33" value="" style="shape=mxgraph.signs.people.woman_1;html=1;fillColor=#CCCCCC;strokeColor=none;verticalLabelPosition=bottom;verticalAlign=top;align=center;rounded=0;shadow=0;dashed=0;fontFamily=Lucida Console;fontSize=30;" parent="1" vertex="1">
          <mxGeometry x="670" y="560" width="19" height="40" as="geometry" />
        </mxCell>
        <mxCell id="5d17adbdfd248a57-34" value="" style="shape=mxgraph.signs.people.woman_1;html=1;fillColor=#CCCCCC;strokeColor=none;verticalLabelPosition=bottom;verticalAlign=top;align=center;rounded=0;shadow=0;dashed=0;fontFamily=Lucida Console;fontSize=30;" parent="1" vertex="1">
          <mxGeometry x="691" y="560" width="19" height="40" as="geometry" />
        </mxCell>
        <mxCell id="5d17adbdfd248a57-35" value="" style="shape=mxgraph.signs.people.woman_1;html=1;fillColor=#CCCCCC;strokeColor=none;verticalLabelPosition=bottom;verticalAlign=top;align=center;rounded=0;shadow=0;dashed=0;fontFamily=Lucida Console;fontSize=30;" parent="1" vertex="1">
          <mxGeometry x="712" y="560" width="19" height="40" as="geometry" />
        </mxCell>
        <mxCell id="5d17adbdfd248a57-36" value="" style="shape=mxgraph.signs.people.woman_1;html=1;fillColor=#AB221C;strokeColor=none;verticalLabelPosition=bottom;verticalAlign=top;align=center;rounded=0;shadow=0;dashed=0;fontFamily=Lucida Console;fontSize=30;" parent="1" vertex="1">
          <mxGeometry x="479" y="610" width="19" height="40" as="geometry" />
        </mxCell>
        <mxCell id="5d17adbdfd248a57-37" value="" style="shape=mxgraph.signs.people.woman_1;html=1;fillColor=#AB221C;strokeColor=none;verticalLabelPosition=bottom;verticalAlign=top;align=center;rounded=0;shadow=0;dashed=0;fontFamily=Lucida Console;fontSize=30;" parent="1" vertex="1">
          <mxGeometry x="500" y="610" width="19" height="40" as="geometry" />
        </mxCell>
        <mxCell id="5d17adbdfd248a57-38" value="" style="shape=mxgraph.signs.people.woman_1;html=1;fillColor=#AB221C;strokeColor=none;verticalLabelPosition=bottom;verticalAlign=top;align=center;rounded=0;shadow=0;dashed=0;fontFamily=Lucida Console;fontSize=30;" parent="1" vertex="1">
          <mxGeometry x="521" y="610" width="19" height="40" as="geometry" />
        </mxCell>
        <mxCell id="5d17adbdfd248a57-39" value="" style="shape=mxgraph.signs.people.woman_1;html=1;fillColor=#AB221C;strokeColor=none;verticalLabelPosition=bottom;verticalAlign=top;align=center;rounded=0;shadow=0;dashed=0;fontFamily=Lucida Console;fontSize=30;" parent="1" vertex="1">
          <mxGeometry x="543" y="610" width="19" height="40" as="geometry" />
        </mxCell>
        <mxCell id="5d17adbdfd248a57-40" value="" style="shape=mxgraph.signs.people.woman_1;html=1;fillColor=#AB221C;strokeColor=none;verticalLabelPosition=bottom;verticalAlign=top;align=center;rounded=0;shadow=0;dashed=0;fontFamily=Lucida Console;fontSize=30;" parent="1" vertex="1">
          <mxGeometry x="564" y="610" width="19" height="40" as="geometry" />
        </mxCell>
        <mxCell id="5d17adbdfd248a57-41" value="" style="shape=mxgraph.signs.people.woman_1;html=1;fillColor=#AB221C;strokeColor=none;verticalLabelPosition=bottom;verticalAlign=top;align=center;rounded=0;shadow=0;dashed=0;fontFamily=Lucida Console;fontSize=30;" parent="1" vertex="1">
          <mxGeometry x="585" y="610" width="19" height="40" as="geometry" />
        </mxCell>
        <mxCell id="5d17adbdfd248a57-42" value="" style="shape=mxgraph.signs.people.woman_1;html=1;fillColor=#AB221C;strokeColor=none;verticalLabelPosition=bottom;verticalAlign=top;align=center;rounded=0;shadow=0;dashed=0;fontFamily=Lucida Console;fontSize=30;" parent="1" vertex="1">
          <mxGeometry x="606" y="610" width="19" height="40" as="geometry" />
        </mxCell>
        <mxCell id="5d17adbdfd248a57-43" value="" style="shape=mxgraph.signs.people.woman_1;html=1;fillColor=#AB221C;strokeColor=none;verticalLabelPosition=bottom;verticalAlign=top;align=center;rounded=0;shadow=0;dashed=0;fontFamily=Lucida Console;fontSize=30;" parent="1" vertex="1">
          <mxGeometry x="627" y="610" width="19" height="40" as="geometry" />
        </mxCell>
        <mxCell id="5d17adbdfd248a57-44" value="" style="shape=mxgraph.signs.people.woman_1;html=1;fillColor=#CCCCCC;strokeColor=none;verticalLabelPosition=bottom;verticalAlign=top;align=center;rounded=0;shadow=0;dashed=0;fontFamily=Lucida Console;fontSize=30;" parent="1" vertex="1">
          <mxGeometry x="648" y="610" width="19" height="40" as="geometry" />
        </mxCell>
        <mxCell id="5d17adbdfd248a57-45" value="" style="shape=mxgraph.signs.people.woman_1;html=1;fillColor=#CCCCCC;strokeColor=none;verticalLabelPosition=bottom;verticalAlign=top;align=center;rounded=0;shadow=0;dashed=0;fontFamily=Lucida Console;fontSize=30;" parent="1" vertex="1">
          <mxGeometry x="670" y="610" width="19" height="40" as="geometry" />
        </mxCell>
        <mxCell id="5d17adbdfd248a57-46" value="" style="shape=mxgraph.signs.people.woman_1;html=1;fillColor=#CCCCCC;strokeColor=none;verticalLabelPosition=bottom;verticalAlign=top;align=center;rounded=0;shadow=0;dashed=0;fontFamily=Lucida Console;fontSize=30;" parent="1" vertex="1">
          <mxGeometry x="691" y="610" width="19" height="40" as="geometry" />
        </mxCell>
        <mxCell id="5d17adbdfd248a57-47" value="" style="shape=mxgraph.signs.people.woman_1;html=1;fillColor=#CCCCCC;strokeColor=none;verticalLabelPosition=bottom;verticalAlign=top;align=center;rounded=0;shadow=0;dashed=0;fontFamily=Lucida Console;fontSize=30;" parent="1" vertex="1">
          <mxGeometry x="712" y="610" width="19" height="40" as="geometry" />
        </mxCell>
        <mxCell id="5d17adbdfd248a57-48" value="" style="shape=mxgraph.signs.people.woman_1;html=1;fillColor=#58B957;strokeColor=none;verticalLabelPosition=bottom;verticalAlign=top;align=center;rounded=0;shadow=0;dashed=0;fontFamily=Lucida Console;fontSize=30;" parent="1" vertex="1">
          <mxGeometry x="479" y="660" width="19" height="40" as="geometry" />
        </mxCell>
        <mxCell id="5d17adbdfd248a57-49" value="" style="shape=mxgraph.signs.people.woman_1;html=1;fillColor=#58B957;strokeColor=none;verticalLabelPosition=bottom;verticalAlign=top;align=center;rounded=0;shadow=0;dashed=0;fontFamily=Lucida Console;fontSize=30;" parent="1" vertex="1">
          <mxGeometry x="500" y="660" width="19" height="40" as="geometry" />
        </mxCell>
        <mxCell id="5d17adbdfd248a57-50" value="" style="shape=mxgraph.signs.people.woman_1;html=1;fillColor=#58B957;strokeColor=none;verticalLabelPosition=bottom;verticalAlign=top;align=center;rounded=0;shadow=0;dashed=0;fontFamily=Lucida Console;fontSize=30;" parent="1" vertex="1">
          <mxGeometry x="521" y="660" width="19" height="40" as="geometry" />
        </mxCell>
        <mxCell id="5d17adbdfd248a57-51" value="" style="shape=mxgraph.signs.people.woman_1;html=1;fillColor=#58B957;strokeColor=none;verticalLabelPosition=bottom;verticalAlign=top;align=center;rounded=0;shadow=0;dashed=0;fontFamily=Lucida Console;fontSize=30;" parent="1" vertex="1">
          <mxGeometry x="543" y="660" width="19" height="40" as="geometry" />
        </mxCell>
        <mxCell id="5d17adbdfd248a57-52" value="" style="shape=mxgraph.signs.people.woman_1;html=1;fillColor=#CCCCCC;strokeColor=none;verticalLabelPosition=bottom;verticalAlign=top;align=center;rounded=0;shadow=0;dashed=0;fontFamily=Lucida Console;fontSize=30;" parent="1" vertex="1">
          <mxGeometry x="564" y="660" width="19" height="40" as="geometry" />
        </mxCell>
        <mxCell id="5d17adbdfd248a57-53" value="" style="shape=mxgraph.signs.people.woman_1;html=1;fillColor=#CCCCCC;strokeColor=none;verticalLabelPosition=bottom;verticalAlign=top;align=center;rounded=0;shadow=0;dashed=0;fontFamily=Lucida Console;fontSize=30;" parent="1" vertex="1">
          <mxGeometry x="585" y="660" width="19" height="40" as="geometry" />
        </mxCell>
        <mxCell id="5d17adbdfd248a57-54" value="" style="shape=mxgraph.signs.people.woman_1;html=1;fillColor=#CCCCCC;strokeColor=none;verticalLabelPosition=bottom;verticalAlign=top;align=center;rounded=0;shadow=0;dashed=0;fontFamily=Lucida Console;fontSize=30;" parent="1" vertex="1">
          <mxGeometry x="606" y="660" width="19" height="40" as="geometry" />
        </mxCell>
        <mxCell id="5d17adbdfd248a57-55" value="" style="shape=mxgraph.signs.people.woman_1;html=1;fillColor=#CCCCCC;strokeColor=none;verticalLabelPosition=bottom;verticalAlign=top;align=center;rounded=0;shadow=0;dashed=0;fontFamily=Lucida Console;fontSize=30;" parent="1" vertex="1">
          <mxGeometry x="627" y="660" width="19" height="40" as="geometry" />
        </mxCell>
        <mxCell id="5d17adbdfd248a57-56" value="" style="shape=mxgraph.signs.people.woman_1;html=1;fillColor=#CCCCCC;strokeColor=none;verticalLabelPosition=bottom;verticalAlign=top;align=center;rounded=0;shadow=0;dashed=0;fontFamily=Lucida Console;fontSize=30;" parent="1" vertex="1">
          <mxGeometry x="648" y="660" width="19" height="40" as="geometry" />
        </mxCell>
        <mxCell id="5d17adbdfd248a57-57" value="" style="shape=mxgraph.signs.people.woman_1;html=1;fillColor=#CCCCCC;strokeColor=none;verticalLabelPosition=bottom;verticalAlign=top;align=center;rounded=0;shadow=0;dashed=0;fontFamily=Lucida Console;fontSize=30;" parent="1" vertex="1">
          <mxGeometry x="670" y="660" width="19" height="40" as="geometry" />
        </mxCell>
        <mxCell id="5d17adbdfd248a57-58" value="" style="shape=mxgraph.signs.people.woman_1;html=1;fillColor=#CCCCCC;strokeColor=none;verticalLabelPosition=bottom;verticalAlign=top;align=center;rounded=0;shadow=0;dashed=0;fontFamily=Lucida Console;fontSize=30;" parent="1" vertex="1">
          <mxGeometry x="691" y="660" width="19" height="40" as="geometry" />
        </mxCell>
        <mxCell id="5d17adbdfd248a57-59" value="" style="shape=mxgraph.signs.people.woman_1;html=1;fillColor=#CCCCCC;strokeColor=none;verticalLabelPosition=bottom;verticalAlign=top;align=center;rounded=0;shadow=0;dashed=0;fontFamily=Lucida Console;fontSize=30;" parent="1" vertex="1">
          <mxGeometry x="712" y="660" width="19" height="40" as="geometry" />
        </mxCell>
        <mxCell id="5d17adbdfd248a57-60" value="" style="shape=mxgraph.signs.transportation.bicycle_2;html=1;fillColor=#FFFFFF;strokeColor=none;verticalLabelPosition=bottom;verticalAlign=top;align=center;rounded=0;shadow=0;dashed=0;fontFamily=Lucida Console;fontSize=30;" parent="1" vertex="1">
          <mxGeometry x="276" y="339" width="99" height="56" as="geometry" />
        </mxCell>
        <mxCell id="5d17adbdfd248a57-61" value="" style="shape=mxgraph.signs.transportation.airplane_3;html=1;fillColor=#FFFFFF;strokeColor=none;verticalLabelPosition=bottom;verticalAlign=top;align=center;rounded=0;shadow=0;dashed=0;fontFamily=Lucida Console;fontSize=30;" parent="1" vertex="1">
          <mxGeometry x="837" y="318" width="97" height="98" as="geometry" />
        </mxCell>
        <mxCell id="5d17adbdfd248a57-62" value="" style="shape=mxgraph.signs.tech.cell_phone;html=1;fillColor=#FFFFFF;strokeColor=none;verticalLabelPosition=bottom;verticalAlign=top;align=center;rounded=0;shadow=0;dashed=0;fontFamily=Lucida Console;fontSize=30;" parent="1" vertex="1">
          <mxGeometry x="1142" y="311" width="47" height="98" as="geometry" />
        </mxCell>
        <mxCell id="5d17adbdfd248a57-63" value="" style="shape=mxgraph.signs.science.laboratory;html=1;fillColor=#FFFFFF;strokeColor=none;verticalLabelPosition=bottom;verticalAlign=top;align=center;rounded=0;shadow=0;dashed=0;fontFamily=Lucida Console;fontSize=30;" parent="1" vertex="1">
          <mxGeometry x="557" y="318" width="98" height="98" as="geometry" />
        </mxCell>
        <mxCell id="5d17adbdfd248a57-84" value="" style="html=1;shadow=0;dashed=0;align=center;verticalAlign=middle;shape=mxgraph.arrows2.arrow;dy=0.6;dx=40;notch=0;rounded=0;strokeWidth=1;fontFamily=Lucida Console;fontSize=30;strokeColor=none;" parent="1" vertex="1">
          <mxGeometry x="428" y="325" width="62" height="70" as="geometry" />
        </mxCell>
        <mxCell id="5d17adbdfd248a57-86" value="" style="html=1;shadow=0;dashed=0;align=center;verticalAlign=middle;shape=mxgraph.arrows2.arrow;dy=0.6;dx=40;notch=0;rounded=0;strokeWidth=1;fontFamily=Lucida Console;fontSize=30;strokeColor=none;" parent="1" vertex="1">
          <mxGeometry x="710" y="325" width="62" height="70" as="geometry" />
        </mxCell>
        <mxCell id="5d17adbdfd248a57-87" value="" style="html=1;shadow=0;dashed=0;align=center;verticalAlign=middle;shape=mxgraph.arrows2.arrow;dy=0.6;dx=40;notch=0;rounded=0;strokeWidth=1;fontFamily=Lucida Console;fontSize=30;strokeColor=none;" parent="1" vertex="1">
          <mxGeometry x="990" y="325" width="62" height="70" as="geometry" />
        </mxCell>
        <mxCell id="5d17adbdfd248a57-88" value="" style="html=1;shadow=0;dashed=0;align=center;verticalAlign=middle;shape=mxgraph.arrows2.arrow;dy=0.6;dx=40;notch=0;rounded=0;strokeWidth=1;fontFamily=Lucida Console;fontSize=30;strokeColor=none;" parent="1" vertex="1">
          <mxGeometry x="1270" y="325" width="62" height="70" as="geometry" />
        </mxCell>
        <mxCell id="5d17adbdfd248a57-89" value="65%" style="whiteSpace=wrap;html=1;rounded=1;shadow=0;dashed=0;strokeWidth=1;fontFamily=Lucida Console;fontSize=14;align=left;spacingLeft=6;arcSize=50;fillColor=#CCCCCC;strokeColor=none;" parent="1" vertex="1">
          <mxGeometry x="769.0000000000001" y="565" width="234" height="25" as="geometry" />
        </mxCell>
        <mxCell id="5d17adbdfd248a57-90" value="" style="whiteSpace=wrap;html=1;rounded=1;shadow=0;dashed=0;strokeWidth=1;fontFamily=Lucida Console;fontSize=30;arcSize=50;strokeColor=none;" parent="1" vertex="1">
          <mxGeometry x="809.0000000000001" y="569" width="190" height="17" as="geometry" />
        </mxCell>
        <mxCell id="5d17adbdfd248a57-91" value="" style="whiteSpace=wrap;html=1;rounded=1;shadow=0;dashed=0;strokeWidth=1;fontFamily=Lucida Console;fontSize=30;arcSize=50;fillColor=#55BFE0;strokeColor=none;" parent="1" vertex="1">
          <mxGeometry x="811.0000000000001" y="571" width="132" height="13" as="geometry" />
        </mxCell>
        <mxCell id="5d17adbdfd248a57-94" value="65%" style="whiteSpace=wrap;html=1;rounded=1;shadow=0;dashed=0;strokeWidth=1;fontFamily=Lucida Console;fontSize=14;align=left;spacingLeft=6;arcSize=50;fillColor=#CCCCCC;strokeColor=none;" parent="1" vertex="1">
          <mxGeometry x="768.9999999999999" y="599" width="234" height="25" as="geometry" />
        </mxCell>
        <mxCell id="5d17adbdfd248a57-95" value="" style="whiteSpace=wrap;html=1;rounded=1;shadow=0;dashed=0;strokeWidth=1;fontFamily=Lucida Console;fontSize=30;arcSize=50;strokeColor=none;" parent="1" vertex="1">
          <mxGeometry x="808.9999999999999" y="603" width="190" height="17" as="geometry" />
        </mxCell>
        <mxCell id="5d17adbdfd248a57-96" value="" style="whiteSpace=wrap;html=1;rounded=1;shadow=0;dashed=0;strokeWidth=1;fontFamily=Lucida Console;fontSize=30;arcSize=50;fillColor=#EFAC43;strokeColor=none;" parent="1" vertex="1">
          <mxGeometry x="811" y="605" width="59" height="13" as="geometry" />
        </mxCell>
        <mxCell id="5d17adbdfd248a57-98" value="65%" style="whiteSpace=wrap;html=1;rounded=1;shadow=0;dashed=0;strokeWidth=1;fontFamily=Lucida Console;fontSize=14;align=left;spacingLeft=6;arcSize=50;fillColor=#CCCCCC;strokeColor=none;" parent="1" vertex="1">
          <mxGeometry x="769" y="633" width="234" height="25" as="geometry" />
        </mxCell>
        <mxCell id="5d17adbdfd248a57-99" value="" style="whiteSpace=wrap;html=1;rounded=1;shadow=0;dashed=0;strokeWidth=1;fontFamily=Lucida Console;fontSize=30;arcSize=50;strokeColor=none;" parent="1" vertex="1">
          <mxGeometry x="809" y="637" width="190" height="17" as="geometry" />
        </mxCell>
        <mxCell id="5d17adbdfd248a57-100" value="" style="whiteSpace=wrap;html=1;rounded=1;shadow=0;dashed=0;strokeWidth=1;fontFamily=Lucida Console;fontSize=30;arcSize=50;fillColor=#0D5B9D;strokeColor=none;" parent="1" vertex="1">
          <mxGeometry x="811" y="639" width="169" height="13" as="geometry" />
        </mxCell>
        <mxCell id="5d17adbdfd248a57-102" value="65%" style="whiteSpace=wrap;html=1;rounded=1;shadow=0;dashed=0;strokeWidth=1;fontFamily=Lucida Console;fontSize=14;align=left;spacingLeft=6;arcSize=50;fillColor=#CCCCCC;strokeColor=none;" parent="1" vertex="1">
          <mxGeometry x="769" y="667" width="234" height="25" as="geometry" />
        </mxCell>
        <mxCell id="5d17adbdfd248a57-103" value="" style="whiteSpace=wrap;html=1;rounded=1;shadow=0;dashed=0;strokeWidth=1;fontFamily=Lucida Console;fontSize=30;arcSize=50;strokeColor=none;" parent="1" vertex="1">
          <mxGeometry x="809" y="671" width="190" height="17" as="geometry" />
        </mxCell>
        <mxCell id="5d17adbdfd248a57-104" value="" style="whiteSpace=wrap;html=1;rounded=1;shadow=0;dashed=0;strokeWidth=1;fontFamily=Lucida Console;fontSize=30;arcSize=50;fillColor=#AB221C;strokeColor=none;" parent="1" vertex="1">
          <mxGeometry x="811" y="673" width="119" height="13" as="geometry" />
        </mxCell>
        <mxCell id="5d17adbdfd248a57-105" value="" style="whiteSpace=wrap;html=1;rounded=0;shadow=0;dashed=0;strokeWidth=1;fontFamily=Lucida Console;fontSize=14;align=left;fillColor=#55BFE0;strokeColor=none;" parent="1" vertex="1">
          <mxGeometry x="1350" y="695" width="40" height="10" as="geometry" />
        </mxCell>
        <mxCell id="5d17adbdfd248a57-106" value="" style="whiteSpace=wrap;html=1;rounded=0;shadow=0;dashed=0;strokeWidth=1;fontFamily=Lucida Console;fontSize=14;align=left;fillColor=#55BFE0;strokeColor=none;" parent="1" vertex="1">
          <mxGeometry x="1350" y="675" width="40" height="10" as="geometry" />
        </mxCell>
        <mxCell id="5d17adbdfd248a57-107" value="" style="whiteSpace=wrap;html=1;rounded=0;shadow=0;dashed=0;strokeWidth=1;fontFamily=Lucida Console;fontSize=14;align=left;fillColor=#55BFE0;strokeColor=none;" parent="1" vertex="1">
          <mxGeometry x="1350" y="655" width="40" height="10" as="geometry" />
        </mxCell>
        <mxCell id="5d17adbdfd248a57-108" value="" style="whiteSpace=wrap;html=1;rounded=0;shadow=0;dashed=0;strokeWidth=1;fontFamily=Lucida Console;fontSize=14;align=left;fillColor=#55BFE0;strokeColor=none;" parent="1" vertex="1">
          <mxGeometry x="1350" y="635" width="40" height="10" as="geometry" />
        </mxCell>
        <mxCell id="5d17adbdfd248a57-109" value="" style="whiteSpace=wrap;html=1;rounded=0;shadow=0;dashed=0;strokeWidth=1;fontFamily=Lucida Console;fontSize=14;align=left;fillColor=#CCCCCC;strokeColor=none;" parent="1" vertex="1">
          <mxGeometry x="1350" y="615" width="40" height="10" as="geometry" />
        </mxCell>
        <mxCell id="5d17adbdfd248a57-110" value="" style="whiteSpace=wrap;html=1;rounded=0;shadow=0;dashed=0;strokeWidth=1;fontFamily=Lucida Console;fontSize=14;align=left;fillColor=#CCCCCC;strokeColor=none;" parent="1" vertex="1">
          <mxGeometry x="1350" y="595" width="40" height="10" as="geometry" />
        </mxCell>
        <mxCell id="5d17adbdfd248a57-111" value="" style="whiteSpace=wrap;html=1;rounded=0;shadow=0;dashed=0;strokeWidth=1;fontFamily=Lucida Console;fontSize=14;align=left;fillColor=#CCCCCC;strokeColor=none;" parent="1" vertex="1">
          <mxGeometry x="1350" y="575" width="40" height="10" as="geometry" />
        </mxCell>
        <mxCell id="5d17adbdfd248a57-112" value="" style="whiteSpace=wrap;html=1;rounded=0;shadow=0;dashed=0;strokeWidth=1;fontFamily=Lucida Console;fontSize=14;align=left;fillColor=#CCCCCC;strokeColor=none;" parent="1" vertex="1">
          <mxGeometry x="1350" y="555" width="40" height="10" as="geometry" />
        </mxCell>
        <mxCell id="5d17adbdfd248a57-117" value="" style="whiteSpace=wrap;html=1;rounded=0;shadow=0;dashed=0;strokeWidth=1;fontFamily=Lucida Console;fontSize=14;align=left;fillColor=#EFAC43;strokeColor=none;" parent="1" vertex="1">
          <mxGeometry x="1400" y="695" width="40" height="10" as="geometry" />
        </mxCell>
        <mxCell id="5d17adbdfd248a57-118" value="" style="whiteSpace=wrap;html=1;rounded=0;shadow=0;dashed=0;strokeWidth=1;fontFamily=Lucida Console;fontSize=14;align=left;fillColor=#EFAC43;strokeColor=none;" parent="1" vertex="1">
          <mxGeometry x="1400" y="675" width="40" height="10" as="geometry" />
        </mxCell>
        <mxCell id="5d17adbdfd248a57-119" value="" style="whiteSpace=wrap;html=1;rounded=0;shadow=0;dashed=0;strokeWidth=1;fontFamily=Lucida Console;fontSize=14;align=left;fillColor=#EFAC43;strokeColor=none;" parent="1" vertex="1">
          <mxGeometry x="1400" y="655" width="40" height="10" as="geometry" />
        </mxCell>
        <mxCell id="5d17adbdfd248a57-120" value="" style="whiteSpace=wrap;html=1;rounded=0;shadow=0;dashed=0;strokeWidth=1;fontFamily=Lucida Console;fontSize=14;align=left;fillColor=#EFAC43;strokeColor=none;" parent="1" vertex="1">
          <mxGeometry x="1400" y="635" width="40" height="10" as="geometry" />
        </mxCell>
        <mxCell id="5d17adbdfd248a57-121" value="" style="whiteSpace=wrap;html=1;rounded=0;shadow=0;dashed=0;strokeWidth=1;fontFamily=Lucida Console;fontSize=14;align=left;fillColor=#EFAC43;strokeColor=none;" parent="1" vertex="1">
          <mxGeometry x="1400" y="615" width="40" height="10" as="geometry" />
        </mxCell>
        <mxCell id="5d17adbdfd248a57-122" value="" style="whiteSpace=wrap;html=1;rounded=0;shadow=0;dashed=0;strokeWidth=1;fontFamily=Lucida Console;fontSize=14;align=left;fillColor=#EFAC43;strokeColor=none;" parent="1" vertex="1">
          <mxGeometry x="1400" y="595" width="40" height="10" as="geometry" />
        </mxCell>
        <mxCell id="5d17adbdfd248a57-123" value="" style="whiteSpace=wrap;html=1;rounded=0;shadow=0;dashed=0;strokeWidth=1;fontFamily=Lucida Console;fontSize=14;align=left;fillColor=#CCCCCC;strokeColor=none;" parent="1" vertex="1">
          <mxGeometry x="1400" y="575" width="40" height="10" as="geometry" />
        </mxCell>
        <mxCell id="5d17adbdfd248a57-124" value="" style="whiteSpace=wrap;html=1;rounded=0;shadow=0;dashed=0;strokeWidth=1;fontFamily=Lucida Console;fontSize=14;align=left;fillColor=#CCCCCC;strokeColor=none;" parent="1" vertex="1">
          <mxGeometry x="1400" y="555" width="40" height="10" as="geometry" />
        </mxCell>
        <mxCell id="5d17adbdfd248a57-125" value="" style="whiteSpace=wrap;html=1;rounded=0;shadow=0;dashed=0;strokeWidth=1;fontFamily=Lucida Console;fontSize=14;align=left;fillColor=#0D5B9D;strokeColor=none;" parent="1" vertex="1">
          <mxGeometry x="1450" y="695" width="40" height="10" as="geometry" />
        </mxCell>
        <mxCell id="5d17adbdfd248a57-126" value="" style="whiteSpace=wrap;html=1;rounded=0;shadow=0;dashed=0;strokeWidth=1;fontFamily=Lucida Console;fontSize=14;align=left;fillColor=#0D5B9D;strokeColor=none;" parent="1" vertex="1">
          <mxGeometry x="1450" y="675" width="40" height="10" as="geometry" />
        </mxCell>
        <mxCell id="5d17adbdfd248a57-127" value="" style="whiteSpace=wrap;html=1;rounded=0;shadow=0;dashed=0;strokeWidth=1;fontFamily=Lucida Console;fontSize=14;align=left;fillColor=#CCCCCC;strokeColor=none;" parent="1" vertex="1">
          <mxGeometry x="1450" y="655" width="40" height="10" as="geometry" />
        </mxCell>
        <mxCell id="5d17adbdfd248a57-128" value="" style="whiteSpace=wrap;html=1;rounded=0;shadow=0;dashed=0;strokeWidth=1;fontFamily=Lucida Console;fontSize=14;align=left;fillColor=#CCCCCC;strokeColor=none;" parent="1" vertex="1">
          <mxGeometry x="1450" y="635" width="40" height="10" as="geometry" />
        </mxCell>
        <mxCell id="5d17adbdfd248a57-129" value="" style="whiteSpace=wrap;html=1;rounded=0;shadow=0;dashed=0;strokeWidth=1;fontFamily=Lucida Console;fontSize=14;align=left;fillColor=#CCCCCC;strokeColor=none;" parent="1" vertex="1">
          <mxGeometry x="1450" y="615" width="40" height="10" as="geometry" />
        </mxCell>
        <mxCell id="5d17adbdfd248a57-130" value="" style="whiteSpace=wrap;html=1;rounded=0;shadow=0;dashed=0;strokeWidth=1;fontFamily=Lucida Console;fontSize=14;align=left;fillColor=#CCCCCC;strokeColor=none;" parent="1" vertex="1">
          <mxGeometry x="1450" y="595" width="40" height="10" as="geometry" />
        </mxCell>
        <mxCell id="5d17adbdfd248a57-131" value="" style="whiteSpace=wrap;html=1;rounded=0;shadow=0;dashed=0;strokeWidth=1;fontFamily=Lucida Console;fontSize=14;align=left;fillColor=#CCCCCC;strokeColor=none;" parent="1" vertex="1">
          <mxGeometry x="1450" y="575" width="40" height="10" as="geometry" />
        </mxCell>
        <mxCell id="5d17adbdfd248a57-132" value="" style="whiteSpace=wrap;html=1;rounded=0;shadow=0;dashed=0;strokeWidth=1;fontFamily=Lucida Console;fontSize=14;align=left;fillColor=#CCCCCC;strokeColor=none;" parent="1" vertex="1">
          <mxGeometry x="1450" y="555" width="40" height="10" as="geometry" />
        </mxCell>
        <mxCell id="5d17adbdfd248a57-133" value="" style="whiteSpace=wrap;html=1;rounded=0;shadow=0;dashed=0;strokeWidth=1;fontFamily=Lucida Console;fontSize=14;align=left;fillColor=#AB221C;strokeColor=none;" parent="1" vertex="1">
          <mxGeometry x="1500" y="695" width="40" height="10" as="geometry" />
        </mxCell>
        <mxCell id="5d17adbdfd248a57-134" value="" style="whiteSpace=wrap;html=1;rounded=0;shadow=0;dashed=0;strokeWidth=1;fontFamily=Lucida Console;fontSize=14;align=left;fillColor=#AB221C;strokeColor=none;" parent="1" vertex="1">
          <mxGeometry x="1500" y="675" width="40" height="10" as="geometry" />
        </mxCell>
        <mxCell id="5d17adbdfd248a57-135" value="" style="whiteSpace=wrap;html=1;rounded=0;shadow=0;dashed=0;strokeWidth=1;fontFamily=Lucida Console;fontSize=14;align=left;fillColor=#AB221C;strokeColor=none;" parent="1" vertex="1">
          <mxGeometry x="1500" y="655" width="40" height="10" as="geometry" />
        </mxCell>
        <mxCell id="5d17adbdfd248a57-136" value="" style="whiteSpace=wrap;html=1;rounded=0;shadow=0;dashed=0;strokeWidth=1;fontFamily=Lucida Console;fontSize=14;align=left;fillColor=#AB221C;strokeColor=none;" parent="1" vertex="1">
          <mxGeometry x="1500" y="635" width="40" height="10" as="geometry" />
        </mxCell>
        <mxCell id="5d17adbdfd248a57-137" value="" style="whiteSpace=wrap;html=1;rounded=0;shadow=0;dashed=0;strokeWidth=1;fontFamily=Lucida Console;fontSize=14;align=left;fillColor=#AB221C;strokeColor=none;" parent="1" vertex="1">
          <mxGeometry x="1500" y="615" width="40" height="10" as="geometry" />
        </mxCell>
        <mxCell id="5d17adbdfd248a57-138" value="" style="whiteSpace=wrap;html=1;rounded=0;shadow=0;dashed=0;strokeWidth=1;fontFamily=Lucida Console;fontSize=14;align=left;fillColor=#AB221C;strokeColor=none;" parent="1" vertex="1">
          <mxGeometry x="1500" y="595" width="40" height="10" as="geometry" />
        </mxCell>
        <mxCell id="5d17adbdfd248a57-139" value="" style="whiteSpace=wrap;html=1;rounded=0;shadow=0;dashed=0;strokeWidth=1;fontFamily=Lucida Console;fontSize=14;align=left;fillColor=#AB221C;strokeColor=none;" parent="1" vertex="1">
          <mxGeometry x="1500" y="575" width="40" height="10" as="geometry" />
        </mxCell>
        <mxCell id="5d17adbdfd248a57-140" value="" style="whiteSpace=wrap;html=1;rounded=0;shadow=0;dashed=0;strokeWidth=1;fontFamily=Lucida Console;fontSize=14;align=left;fillColor=#CCCCCC;strokeColor=none;" parent="1" vertex="1">
          <mxGeometry x="1500" y="555" width="40" height="10" as="geometry" />
        </mxCell>
        <mxCell id="5d17adbdfd248a57-141" value="" style="verticalLabelPosition=bottom;html=1;verticalAlign=top;strokeColor=none;fillColor=#FFFFFF;shape=mxgraph.azure.express_route;rounded=0;shadow=0;dashed=0;fontFamily=Lucida Console;fontSize=14;align=left;" parent="1" vertex="1">
          <mxGeometry x="1370" y="315" width="150" height="90" as="geometry" />
        </mxCell>
        <mxCell id="5d17adbdfd248a57-148" value="" style="whiteSpace=wrap;html=1;rounded=0;shadow=0;dashed=0;strokeColor=none;strokeWidth=1;fillColor=#FFFFFF;fontFamily=Lucida Console;fontSize=14;align=left;" parent="1" vertex="1">
          <mxGeometry x="185" y="200" width="1400" height="10" as="geometry" />
        </mxCell>
        <mxCell id="5d17adbdfd248a57-149" value="" style="whiteSpace=wrap;html=1;rounded=0;shadow=0;dashed=0;strokeColor=none;strokeWidth=1;fillColor=#FFFFFF;fontFamily=Lucida Console;fontSize=14;align=left;" parent="1" vertex="1">
          <mxGeometry x="185" y="980" width="1400" height="10" as="geometry" />
        </mxCell>
        <mxCell id="5d17adbdfd248a57-150" value="STEP 1" style="text;html=1;strokeColor=none;fillColor=none;align=center;verticalAlign=middle;whiteSpace=wrap;rounded=0;shadow=0;dashed=0;fontSize=40;fontFamily=Helvetica;fontColor=#FFFFFF;fontStyle=1" parent="1" vertex="1">
          <mxGeometry x="185" y="220" width="280" height="60" as="geometry" />
        </mxCell>
        <mxCell id="5d17adbdfd248a57-151" value="STEP 2" style="text;html=1;strokeColor=none;fillColor=none;align=center;verticalAlign=middle;whiteSpace=wrap;rounded=0;shadow=0;dashed=0;fontSize=40;fontFamily=Helvetica;fontColor=#FFFFFF;fontStyle=1" parent="1" vertex="1">
          <mxGeometry x="465" y="220" width="280" height="60" as="geometry" />
        </mxCell>
        <mxCell id="5d17adbdfd248a57-152" value="STEP 3" style="text;html=1;strokeColor=none;fillColor=none;align=center;verticalAlign=middle;whiteSpace=wrap;rounded=0;shadow=0;dashed=0;fontSize=40;fontFamily=Helvetica;fontColor=#FFFFFF;fontStyle=1" parent="1" vertex="1">
          <mxGeometry x="745" y="220" width="280" height="60" as="geometry" />
        </mxCell>
        <mxCell id="5d17adbdfd248a57-153" value="STEP 4" style="text;html=1;strokeColor=none;fillColor=none;align=center;verticalAlign=middle;whiteSpace=wrap;rounded=0;shadow=0;dashed=0;fontSize=40;fontFamily=Helvetica;fontColor=#FFFFFF;fontStyle=1" parent="1" vertex="1">
          <mxGeometry x="1025" y="220" width="280" height="60" as="geometry" />
        </mxCell>
        <mxCell id="5d17adbdfd248a57-154" value="STEP 5" style="text;html=1;strokeColor=none;fillColor=none;align=center;verticalAlign=middle;whiteSpace=wrap;rounded=0;shadow=0;dashed=0;fontSize=40;fontFamily=Helvetica;fontColor=#FFFFFF;fontStyle=1" parent="1" vertex="1">
          <mxGeometry x="1305" y="220" width="280" height="60" as="geometry" />
        </mxCell>
        <mxCell id="5d17adbdfd248a57-156" value="&lt;h1&gt;Heading&lt;/h1&gt;&lt;p&gt;Lorem ipsum dolor sit amet, consectetur adipisicing elit, sed do eiusmod tempor incididunt ut labore et dolore magna aliqua.&lt;/p&gt;" style="text;html=1;strokeColor=none;fillColor=none;spacing=5;spacingTop=-20;whiteSpace=wrap;overflow=hidden;rounded=0;shadow=0;dashed=0;fontFamily=Verdana;fontSize=12;fontColor=#FFFFFF;align=center;" parent="1" vertex="1">
          <mxGeometry x="223" y="800" width="205" height="145" as="geometry" />
        </mxCell>
        <mxCell id="5d17adbdfd248a57-157" value="&lt;h1&gt;Heading&lt;/h1&gt;&lt;p&gt;Lorem ipsum dolor sit amet, consectetur adipisicing elit, sed do eiusmod tempor incididunt ut labore et dolore magna aliqua.&lt;/p&gt;" style="text;html=1;strokeColor=none;fillColor=none;spacing=5;spacingTop=-20;whiteSpace=wrap;overflow=hidden;rounded=0;shadow=0;dashed=0;fontFamily=Verdana;fontSize=12;fontColor=#FFFFFF;align=center;" parent="1" vertex="1">
          <mxGeometry x="502" y="800" width="205" height="145" as="geometry" />
        </mxCell>
        <mxCell id="5d17adbdfd248a57-158" value="&lt;h1&gt;Heading&lt;/h1&gt;&lt;p&gt;Lorem ipsum dolor sit amet, consectetur adipisicing elit, sed do eiusmod tempor incididunt ut labore et dolore magna aliqua.&lt;/p&gt;" style="text;html=1;strokeColor=none;fillColor=none;spacing=5;spacingTop=-20;whiteSpace=wrap;overflow=hidden;rounded=0;shadow=0;dashed=0;fontFamily=Verdana;fontSize=12;fontColor=#FFFFFF;align=center;" parent="1" vertex="1">
          <mxGeometry x="783" y="800" width="205" height="145" as="geometry" />
        </mxCell>
        <mxCell id="5d17adbdfd248a57-159" value="&lt;h1&gt;Heading&lt;/h1&gt;&lt;p&gt;Lorem ipsum dolor sit amet, consectetur adipisicing elit, sed do eiusmod tempor incididunt ut labore et dolore magna aliqua.&lt;/p&gt;" style="text;html=1;strokeColor=none;fillColor=none;spacing=5;spacingTop=-20;whiteSpace=wrap;overflow=hidden;rounded=0;shadow=0;dashed=0;fontFamily=Verdana;fontSize=12;fontColor=#FFFFFF;align=center;" parent="1" vertex="1">
          <mxGeometry x="1062" y="800" width="205" height="145" as="geometry" />
        </mxCell>
        <mxCell id="5d17adbdfd248a57-160" value="&lt;h1&gt;Heading&lt;/h1&gt;&lt;p&gt;Lorem ipsum dolor sit amet, consectetur adipisicing elit, sed do eiusmod tempor incididunt ut labore et dolore magna aliqua.&lt;/p&gt;" style="text;html=1;strokeColor=none;fillColor=none;spacing=5;spacingTop=-20;whiteSpace=wrap;overflow=hidden;rounded=0;shadow=0;dashed=0;fontFamily=Verdana;fontSize=12;fontColor=#FFFFFF;align=center;" parent="1" vertex="1">
          <mxGeometry x="1342" y="800" width="205" height="145" as="geometry" />
        </mxCell>
      </root>
    </mxGraphModel>
  </diagram>
</mxfile>
